<svg width="25" height="24" viewBox="0 0 25 24" fill="none" xmlns="http://www.w3.org/2000/svg">
<path d="M8.5 7V3M16.5 7V3M7.5 11H17.5M5.5 21H19.5C20.0304 21 20.5391 20.7893 20.9142 20.4142C21.2893 20.0391 21.5 19.5304 21.5 19V7C21.5 6.46957 21.2893 5.96086 20.9142 5.58579C20.5391 5.21071 20.0304 5 19.5 5H5.5C4.96957 5 4.46086 5.21071 4.08579 5.58579C3.71071 5.96086 3.5 6.46957 3.5 7V19C3.5 19.5304 3.71071 20.0391 4.08579 20.4142C4.46086 20.7893 4.96957 21 5.5 21Z" stroke="#111827" stroke-width="2" stroke-linecap="round" stroke-linejoin="round"/>
</svg>
