<svg width="25" height="24" viewBox="0 0 25 24" fill="none" xmlns="http://www.w3.org/2000/svg">
<path d="M8.25 7V3M16.25 7V3M7.25 11H17.25M5.25 21H19.25C19.7804 21 20.2891 20.7893 20.6642 20.4142C21.0393 20.0391 21.25 19.5304 21.25 19V7C21.25 6.46957 21.0393 5.96086 20.6642 5.58579C20.2891 5.21071 19.7804 5 19.25 5H5.25C4.71957 5 4.21086 5.21071 3.83579 5.58579C3.46071 5.96086 3.25 6.46957 3.25 7V19C3.25 19.5304 3.46071 20.0391 3.83579 20.4142C4.21086 20.7893 4.71957 21 5.25 21Z" stroke="#9CA3AF" stroke-width="2" stroke-linecap="round" stroke-linejoin="round"/>
</svg>
