<svg width="24" height="24" viewBox="0 0 24 24" fill="none" xmlns="http://www.w3.org/2000/svg">
<path d="M13.4102 12L13.0566 12.3535L9.1051 16.3051C9.10508 16.3051 9.10506 16.3051 9.10504 16.3051C8.97385 16.4364 8.90015 16.6144 8.90015 16.8C8.90015 16.9856 8.97383 17.1635 9.10499 17.2948C9.10503 17.2948 9.10506 17.2949 9.1051 17.2949M13.4102 12L9.1051 17.2949M13.4102 12L13.0566 11.6464L9.10853 7.69832C8.98266 7.5666 8.91308 7.39094 8.91466 7.20866C8.91626 7.02512 8.98988 6.84955 9.11966 6.71977C9.24945 6.58998 9.42502 6.51636 9.60855 6.51477C9.79084 6.51318 9.96649 6.58277 10.0982 6.70863L14.8947 11.5051C14.8947 11.5051 14.8947 11.5051 14.8947 11.5051C15.0259 11.6364 15.0996 11.8144 15.0996 12C15.0996 12.1856 15.0259 12.3636 14.8947 12.4948C14.8947 12.4949 14.8947 12.4949 14.8947 12.4949L10.0948 17.2948M13.4102 12L10.0948 17.2948M9.1051 17.2949C9.23636 17.4261 9.41433 17.4997 9.59989 17.4997C9.78548 17.4997 9.96347 17.426 10.0947 17.2948M9.1051 17.2949L10.0947 17.2948M10.0947 17.2948L10.0948 17.2948M10.0947 17.2948L10.0948 17.2948" fill="#9CA3AF" stroke="#9CA3AF"/>
</svg>
