<svg width="25" height="24" viewBox="0 0 25 24" fill="none" xmlns="http://www.w3.org/2000/svg">
<path d="M18.407 16.657L14.164 20.9C13.9784 21.0858 13.7581 21.2331 13.5156 21.3336C13.273 21.4342 13.0131 21.4859 12.7505 21.4859C12.488 21.4859 12.228 21.4342 11.9854 21.3336C11.7429 21.2331 11.5226 21.0858 11.337 20.9L7.093 16.657C5.97422 15.5382 5.21234 14.1127 4.90369 12.5609C4.59504 11.009 4.75349 9.40053 5.35901 7.93874C5.96452 6.47696 6.9899 5.22755 8.30548 4.34852C9.62107 3.46949 11.1678 3.00031 12.75 3.00031C14.3322 3.00031 15.8789 3.46949 17.1945 4.34852C18.5101 5.22755 19.5355 6.47696 20.141 7.93874C20.7465 9.40053 20.905 11.009 20.5963 12.5609C20.2877 14.1127 19.5258 15.5382 18.407 16.657V16.657Z" stroke="#111827" stroke-width="2" stroke-linecap="round" stroke-linejoin="round"/>
<path d="M14.8713 13.1213C15.4339 12.5587 15.75 11.7956 15.75 11C15.75 10.2044 15.4339 9.44129 14.8713 8.87868C14.3087 8.31607 13.5456 8 12.75 8C11.9544 8 11.1913 8.31607 10.6287 8.87868C10.0661 9.44129 9.75 10.2044 9.75 11C9.75 11.7956 10.0661 12.5587 10.6287 13.1213C11.1913 13.6839 11.9544 14 12.75 14C13.5456 14 14.3087 13.6839 14.8713 13.1213Z" stroke="#111827" stroke-width="2" stroke-linecap="round" stroke-linejoin="round"/>
</svg>
